<svg width="46" height="46" viewBox="0 0 46 46" fill="none" xmlns="http://www.w3.org/2000/svg">
<mask id="mask0_556_1804" style="mask-type:alpha" maskUnits="userSpaceOnUse" x="0" y="0" width="46" height="46">
<circle cx="23" cy="23" r="23" fill="#D9D9D9"/>
</mask>
<g mask="url(#mask0_556_1804)">
<rect width="46" height="46" fill="#008259"/>
<path d="M23.0002 8.94446L42.1668 23L23.0002 37.0556L3.8335 23L23.0002 8.94446Z" fill="#F1B434"/>
<path d="M23.3193 31.9444C28.0828 31.9444 31.9443 27.9399 31.9443 23C31.9443 18.0601 28.0828 14.0555 23.3193 14.0555C18.5559 14.0555 14.6943 18.0601 14.6943 23C14.6943 27.9399 18.5559 31.9444 23.3193 31.9444Z" fill="#004692"/>
<path d="M14.8232 21.4512C15.9174 21.21 17.05 21.0833 18.2083 21.0833C23.2777 21.0833 27.857 23.5101 30.8603 27.3448C31.446 26.2538 31.818 25.0226 31.9175 23.7118C28.3968 20.112 23.5539 17.8889 18.2083 17.8889C17.5193 17.8889 16.8387 17.9258 16.1682 17.9978C15.503 19.0186 15.0356 20.1895 14.8232 21.4512Z" fill="#F5F7F8"/>
</g>
</svg>
