<svg width="358" height="184" viewBox="0 0 358 184" fill="none" xmlns="http://www.w3.org/2000/svg">
<g clip-path="url(#clip0_229_4111)">
<rect width="358" height="184" rx="24" fill="url(#paint0_linear_229_4111)"/>
<mask id="mask0_229_4111" style="mask-type:luminance" maskUnits="userSpaceOnUse" x="228" y="-61" width="254" height="276">
<path d="M444.432 -20.1583C493.689 33.5008 493.689 120.499 444.432 174.158C395.176 227.817 315.316 227.817 266.06 174.158C216.803 120.499 216.803 33.5008 266.06 -20.1583C315.316 -73.8174 395.176 -73.8173 444.432 -20.1583Z" fill="white" stroke="white" stroke-width="0.92765"/>
</mask>
<g mask="url(#mask0_229_4111)">
<path d="M223.336 -16.6401C248.184 -12.6234 268.74 10.6884 294.737 2.0891C323.034 -7.27089 348.903 -39.9891 379.277 -39.7386C403.282 -39.5438 418.107 -9.16329 439.174 -0.54543C462.796 9.12068 490.394 -12.4008 514.007 -15.1466" stroke="#E6F057" stroke-width="0.92765" stroke-miterlimit="10"/>
<path d="M223.131 -14.5622C248.438 -9.55292 266.61 17.9333 293.74 8.33216C322.863 -1.97403 350.256 -38.1802 381.695 -37.7164C406.1 -37.3546 419.938 -3.4026 440.8 6.25423C463.868 16.9315 491.015 -7.02972 514.007 -10.1002" stroke="#E6F057" stroke-width="0.92765" stroke-miterlimit="10"/>
<path d="M222.961 -11.9648C248.728 -6.23192 264.618 24.8722 292.863 14.4176C307.212 9.11141 321.075 -1.54729 333.882 -10.0167C347.532 -19.052 366.64 -35.5178 383.688 -35.1746C408.578 -34.6737 421.326 2.33028 442.129 12.8034C464.89 24.2599 491.424 -1.76992 514.007 -5.06308" stroke="#E6F057" stroke-width="0.92765" stroke-miterlimit="10"/>
<path d="M222.842 -8.69947C249.095 -2.61409 262.898 31.3564 292.165 20.3081C306.905 14.7422 321.211 3.3878 334.291 -5.49908C348.068 -14.8683 367.73 -32.3453 385.136 -31.9371C410.614 -31.3434 422.118 8.0075 443.074 19.0465C465.802 31.0132 491.595 3.35069 514.007 -0.0166769" stroke="#E6F057" stroke-width="0.92765" stroke-miterlimit="10"/>
<path d="M222.773 -4.59926C249.546 1.33769 261.535 37.2656 291.671 25.9482C306.658 20.3174 321.313 8.37855 334.512 -0.749523C348.443 -10.3785 368.181 -28.2822 385.893 -27.8647C412.121 -27.2339 422.152 13.5827 443.542 24.8814C466.525 37.0244 491.492 8.28578 513.998 5.02046" stroke="#E6F057" stroke-width="0.92765" stroke-miterlimit="10"/>
<path d="M222.688 0.382257C249.359 6.32849 261.518 42.1822 291.484 30.7813C306.531 25.0577 321.245 13.3044 334.597 4.22273C348.571 -5.27641 368.446 -23.1151 386.089 -22.8646C412.402 -22.4843 422.126 18.8147 443.508 30.067C466.747 42.3027 491.314 13.2024 514.016 10.0576" stroke="#E6F057" stroke-width="0.92765" stroke-miterlimit="10"/>
<path d="M222.144 5.72548C248.388 11.8109 262.242 45.5402 291.382 34.3899C306.488 28.6106 321.169 17.7293 334.853 8.99081C348.929 0.00188411 369.34 -17.4472 386.694 -17.3081C412.41 -17.0947 422.442 23.9445 443.21 35.1227C466.44 47.6274 491.254 18.2488 514.007 15.1133" stroke="#E6F057" stroke-width="0.92765" stroke-miterlimit="10"/>
<path d="M221.155 11.3192C247.238 17.0892 262.787 47.6831 291.245 37.2099C306.453 31.6069 321.236 21.7181 335.286 13.5084C349.609 5.14105 370.6 -11.5474 387.758 -11.3062C412.878 -10.9629 422.577 29.2228 442.75 40.3361C465.878 53.0727 491.254 23.3137 513.998 20.1597" stroke="#E6F057" stroke-width="0.92765" stroke-miterlimit="10"/>
<path d="M219.81 17.1078C245.858 22.2006 263.246 48.852 291.092 39.3992C306.445 34.1858 321.423 25.3639 335.865 17.8592C350.571 10.2246 372.115 -5.35988 389.171 -4.88678C413.721 -4.19104 422.56 34.6218 442.179 45.6701C465.145 58.6016 491.33 28.3695 513.998 25.1969" stroke="#E6F057" stroke-width="0.92765" stroke-miterlimit="10"/>
<path d="M218.185 23.054C244.233 27.1913 263.639 49.325 290.897 41.1246C306.429 36.4585 321.655 28.7869 336.514 22.1263C351.688 15.3267 373.751 1.1058 390.791 1.94996C414.838 3.13735 422.323 40.2526 441.5 51.1339C464.38 64.121 491.331 33.4622 514.008 30.234" stroke="#E6F057" stroke-width="0.92765" stroke-miterlimit="10"/>
<path d="M216.379 29.1022C242.402 32.0893 263.971 49.3528 290.684 42.5439C306.42 38.5364 321.927 32.08 337.178 26.3935C352.888 20.54 375.386 7.87762 392.476 9.16706C416.643 10.9852 421.147 46.8204 440.741 56.7091C464.772 68.8428 490.335 38.7312 514.016 35.2897" stroke="#E6F057" stroke-width="0.92765" stroke-miterlimit="10"/>
<path d="M214.463 35.2155C239.013 36.8296 262.183 48.8612 286.946 44.5384C307.536 40.9484 327.726 33.6106 347.83 27.7386C361.353 23.7961 379.294 15.6606 393.566 17.4603C418.303 20.5772 420.628 54.4178 441.942 63.4717C465.129 73.3326 491.195 43.6014 514.007 40.3361" stroke="#E6F057" stroke-width="0.92765" stroke-miterlimit="10"/>
<path d="M212.521 41.3286C237.335 41.8203 261.783 48.9168 286.605 45.6329C307.408 42.8778 327.981 37.3861 348.512 32.9334C362.477 29.9093 380.512 23.1467 394.912 25.2339C418.738 28.6848 420.483 60.2712 440.997 69.0932C464.099 79.0283 491.212 48.7035 513.999 45.3732" stroke="#E6F057" stroke-width="0.92765" stroke-miterlimit="10"/>
<path d="M210.656 47.4141C235.845 46.8482 261.11 49.1673 286.256 46.8946C307.254 45.0022 328.142 41.3658 349.022 38.3695C363.439 36.3008 381.389 30.9669 395.976 33.3045C418.874 36.9687 420.321 66.2546 440.077 74.7426C463.17 84.6685 491.194 53.8149 514.007 50.4197" stroke="#E6F057" stroke-width="0.92765" stroke-miterlimit="10"/>
<path d="M208.937 53.4159C234.602 51.9132 260.216 49.7517 285.89 48.4808C307.042 47.4326 328.16 45.633 349.286 44.0931C364.112 43.0077 381.807 39.1023 396.615 41.6255C418.61 45.3639 420.126 72.3493 439.174 80.3827C462.413 90.1972 491.067 58.9262 514.016 55.466" stroke="#E6F057" stroke-width="0.92765" stroke-miterlimit="10"/>
<path d="M207.446 59.2787C233.605 57.0523 259.211 50.8463 285.506 50.5495C306.744 50.3176 327.981 50.2897 349.218 50.1599C364.393 50.0671 381.662 47.5625 396.708 50.1691C417.861 53.8426 419.887 78.5274 438.323 85.9857C461.927 95.5312 490.752 64.0561 514.007 60.5032" stroke="#E6F057" stroke-width="0.92765" stroke-miterlimit="10"/>
<path d="M206.279 64.9744C232.881 62.3214 258.24 52.6553 285.114 53.2861C321.109 54.1395 360.577 52.9336 396.129 58.9447C416.498 62.3956 419.58 84.8261 437.556 91.5423C461.816 100.615 490.215 69.1953 513.998 65.5403" stroke="#E6F057" stroke-width="0.92765" stroke-miterlimit="10"/>
<path d="M205.521 70.4383C231.314 67.9151 255.498 55.7815 281.598 56.6535C318.903 57.8965 358.329 62.3585 395.303 67.7853C415.195 70.7074 420.406 92.8596 438.851 97.5257C463.971 103.889 489.491 74.251 514.015 70.5868" stroke="#E6F057" stroke-width="0.92765" stroke-miterlimit="10"/>
<path d="M205.249 75.6331C231.255 73.5645 254.962 59.6683 281.3 61.134C318.452 63.1934 355.877 72.4327 392.851 76.9968C412.427 79.4179 420.015 99.0934 438.433 102.823C464.618 108.119 488.572 79.4087 513.998 75.6331" stroke="#E6F057" stroke-width="0.92765" stroke-miterlimit="10"/>
<path d="M205.547 80.6889C231.365 78.1842 255.83 65.5218 281.955 66.9689C318.128 68.9634 355.093 76.4773 391.028 81.4588C410.579 84.1675 420.193 103.509 438.825 107.127C464.669 112.145 488.929 84.7427 514.007 80.6889" stroke="#E6F057" stroke-width="0.92765" stroke-miterlimit="10"/>
<path d="M206.398 85.7446C233.264 83.0822 259.347 72.3122 286.485 74.1211C320.155 76.366 354.846 80.5312 388.261 85.522C407.718 88.4255 419.163 105.55 437.633 109.928C463.775 116.116 488.699 89.919 514.007 85.726" stroke="#E6F057" stroke-width="0.92765" stroke-miterlimit="10"/>
<path d="M207.685 90.8187C234.67 88.5275 261.467 80.763 288.606 81.8855C320.555 83.2028 353.808 84.8911 385.528 89.1861C405.615 91.9041 419.487 108.286 438.817 112.368C464.78 117.841 488.776 94.6778 513.999 90.7724" stroke="#E6F057" stroke-width="0.92765" stroke-miterlimit="10"/>
<path d="M209.336 95.893C266.815 92.4421 324.983 86.2918 382.564 92.6555C403.562 94.9746 419.895 110.401 440.315 114.158C465.92 118.871 489.005 99.1954 514.007 95.8095" stroke="#E6F057" stroke-width="0.92765" stroke-miterlimit="10"/>
<path d="M211.244 100.977C238.936 100.207 266.645 100.485 294.328 99.316C322.25 98.1379 351.552 93.9357 379.422 96.0785C401.486 97.7761 420.466 111.338 442.019 115.504C466.636 120.253 489.79 103.5 514.007 100.856" stroke="#E6F057" stroke-width="0.92765" stroke-miterlimit="10"/>
<path d="M213.312 106.06C241.345 106.311 269.65 111.366 297.631 108.648C323.459 106.134 350.282 98.6481 376.22 99.6036C399.432 100.457 421.078 112.628 443.874 116.561C467.751 120.68 490.368 107.721 514.006 105.893" stroke="#E6F057" stroke-width="0.92765" stroke-miterlimit="10"/>
<path d="M215.459 111.153C243.585 112.461 273.014 122.6 301.055 118.157C324.89 114.381 348.886 103.555 373.044 103.37C397.415 103.184 421.718 114.019 445.791 117.526C468.85 120.893 491.041 111.923 514.007 110.939" stroke="#E6F057" stroke-width="0.92765" stroke-miterlimit="10"/>
<path d="M217.588 116.236C246.251 118.648 278.43 134.446 306.888 127.034C327.444 121.682 348.469 107.507 369.715 106.876C394.213 106.144 420.517 115.012 444.88 118.212C468.118 121.264 490.769 116.181 514.007 115.995" stroke="#E6F057" stroke-width="0.92765" stroke-miterlimit="10"/>
<path d="M219.597 121.32C248.37 124.678 281.367 144.558 309.979 136.227C329.351 130.587 346.373 112.962 366.776 111.524C392.33 109.715 420.985 117.136 446.59 119.594C469.045 121.747 491.5 120.439 514.006 121.023" stroke="#E6F057" stroke-width="0.92765" stroke-miterlimit="10"/>
<path d="M221.395 126.403C249.461 130.411 284.979 155.114 312.798 145.123C330.927 138.611 344.526 119.019 364.197 116.895C390.731 114.038 421.386 119.817 448.167 121.44C470.128 122.776 492.038 124.864 513.999 126.069" stroke="#E6F057" stroke-width="0.92765" stroke-miterlimit="10"/>
<path d="M222.885 131.478C250.253 135.865 288.121 164.734 315.217 153.546C332.469 146.422 342.772 125.763 362.094 123.147C389.615 119.418 421.633 123.212 449.538 123.927C471.371 124.483 492.302 129.492 513.999 131.125" stroke="#E6F057" stroke-width="0.92765" stroke-miterlimit="10"/>
<path d="M223.982 136.543C242.222 139.595 257.763 146.877 274.845 154.159C287.822 159.697 303.218 167.443 317.115 161.329C333.873 153.955 341.315 133.259 360.577 130.411C389.172 126.171 421.632 127.517 450.652 127.21C472.682 126.979 492.335 134.353 514.007 136.162" stroke="#E6F057" stroke-width="0.92765" stroke-miterlimit="10"/>
<path d="M224.587 141.598C243.167 144.604 258.563 152.396 275.781 160.188C288.358 165.875 304.546 174.214 318.358 168.315C334.997 161.209 340.379 141.589 359.751 138.843C389.487 134.641 421.36 132.925 451.41 131.468C473.789 130.392 492.199 139.52 514.007 141.19" stroke="#E6F057" stroke-width="0.92765" stroke-miterlimit="10"/>
<path d="M224.604 146.635C243.245 149.576 258.598 157.461 275.841 165.318C288.342 171.014 304.734 179.344 318.571 173.834C335.21 167.211 340.337 148.825 359.59 146.237C389.768 142.183 421.002 138.667 451.394 136.468C474.019 134.826 492.02 144.669 514.007 146.237" stroke="#E6F057" stroke-width="0.92765" stroke-miterlimit="10"/>
<path d="M224.043 151.673C242.47 154.669 257.96 162.211 275.118 169.743C287.763 175.291 303.874 183.305 317.746 177.953C334.266 171.589 340.439 154.038 359.258 151.283C388.968 146.923 419.589 143.212 449.512 140.541C472.759 138.463 491.391 149.131 513.999 151.283" stroke="#E6F057" stroke-width="0.92765" stroke-miterlimit="10"/>
<path d="M222.979 156.691C250.875 161.107 288.198 191.543 316.298 181.432C332.758 175.513 340.303 159.261 358.654 156.329C387.623 151.71 417.052 147.266 446.174 143.815C470.409 140.949 490.42 153.287 513.999 156.329" stroke="#E6F057" stroke-width="0.92765" stroke-miterlimit="10"/>
<path d="M221.505 161.71C249.793 165.866 285.83 193.639 314.322 184.382C330.757 179.048 339.962 164.483 357.81 161.376C385.774 156.515 413.73 151.005 441.763 146.589C466.985 142.609 489.44 157.303 514.007 161.376" stroke="#E6F057" stroke-width="0.92765" stroke-miterlimit="10"/>
<path d="M219.726 166.71C248.49 170.448 282.978 195.114 311.964 186.923C328.262 182.313 339.749 170.133 356.797 166.422C383.399 160.624 410.001 154.604 436.671 149.149C462.617 143.843 488.666 161.348 514.007 166.422" stroke="#E6F057" stroke-width="0.92765" stroke-miterlimit="10"/>
<path d="M217.732 171.719C246.974 174.892 279.886 196.181 309.323 189.187C325.613 185.318 339.025 175.142 355.664 171.459C381.031 165.847 406.092 158.231 431.289 151.784C457.576 145.049 488.188 165.55 514.007 171.459" stroke="#E6F057" stroke-width="0.92765" stroke-miterlimit="10"/>
<path d="M215.612 176.719C244.777 179.131 275.024 195.996 304.376 191.636C321.415 189.103 337.101 179.502 354.191 176.005C379.362 170.856 403.376 159.474 428.479 154.038C454.791 148.342 488.197 170.086 514.007 176.506" stroke="#E6F057" stroke-width="0.92765" stroke-miterlimit="10"/>
<path d="M213.467 181.719C242.691 183.426 272.138 196.97 301.507 193.621C318.623 191.664 335.892 184.474 352.863 180.94C376.953 175.921 399.68 163.639 423.583 157.665C438.034 154.047 452.016 161.051 465.785 166.014C481.802 171.784 497.59 177.276 514.016 181.561" stroke="#E6F057" stroke-width="0.92765" stroke-miterlimit="10"/>
<path d="M211.38 186.719C240.528 187.749 269.472 198.111 298.705 195.69C316.025 194.261 334.52 189.4 351.577 185.912C374.662 181.19 396.427 166.033 419.58 162.285C448.864 157.545 485.182 179.029 513.998 186.599" stroke="#E6F057" stroke-width="0.92765" stroke-miterlimit="10"/>
<path d="M209.456 191.719C238.425 192.146 267.096 199.576 296.117 197.972C313.769 196.998 333.065 194.233 350.445 190.921C373.07 186.617 394.282 171.914 416.924 168.203C446.762 163.315 484.553 184.177 513.999 191.636" stroke="#E6F057" stroke-width="0.92765" stroke-miterlimit="10"/>
<path d="M207.787 196.729C255.286 196.682 302.103 203.714 349.508 196.005C372.074 192.331 393.439 179.066 415.996 175.736C446.413 171.255 483.906 189.743 513.999 196.673" stroke="#E6F057" stroke-width="0.92765" stroke-miterlimit="10"/>
<path d="M206.467 201.747C253.684 201.237 302.111 207.638 349.218 201.719C372.763 198.76 395.72 186.803 419.35 184.641C449.495 181.886 484.297 196.107 513.999 201.719" stroke="#E6F057" stroke-width="0.92765" stroke-miterlimit="10"/>
</g>
</g>
<defs>
<linearGradient id="paint0_linear_229_4111" x1="-11.5" y1="169" x2="358.053" y2="73.7062" gradientUnits="userSpaceOnUse">
<stop offset="0.184704"/>
<stop offset="1" stop-color="#E7FE55" stop-opacity="0.3"/>
</linearGradient>
<clipPath id="clip0_229_4111">
<rect width="358" height="184" rx="24" fill="white"/>
</clipPath>
</defs>
</svg>
