<svg xmlns="http://www.w3.org/2000/svg" fill="none" viewBox="38.279999999999994 45.48 223.8 197.4" style="max-height: 500px" width="223.8" height="197.4">
<path fill="#E7FE55" d="M150 50L180 67.32V101.96L150 119.28L120 101.96V67.32L150 50Z"/>
<path fill="#E7FE55" d="M110 110L140 127.32V161.96L110 179.28L80 161.96V127.32L110 110Z"/>
<path fill="#E7FE55" d="M190 110L220 127.32V161.96L190 179.28L160 161.96V127.32L190 110Z"/>
<path fill="#E7FE55" d="M70 170L100 187.32V221.96L70 239.28L40 221.96V187.32L70 170Z"/>
<path fill="#E7FE55" d="M150 170L180 187.32V221.96L150 239.28L120 221.96V187.32L150 170Z"/>
<path fill="#E7FE55" d="M230 170L260 187.32V221.96L230 239.28L200 221.96V187.32L230 170Z"/>
</svg>