<svg xmlns="http://www.w3.org/2000/svg" fill="none" viewBox="47.50059880239521 48.86 258.52095808383234 254.1" style="max-height: 500px" width="258.52095808383234" height="254.1">
<mask height="248" width="248" y="51" x="51" maskUnits="userSpaceOnUse" style="mask-type:luminance" id="mask0_197_8087">
<path stroke-width="0.832506" stroke="white" fill="white" d="M262.415 87.7943C310.577 135.957 310.577 214.043 262.415 262.206C214.252 310.368 136.166 310.368 88.0033 262.206C39.841 214.043 39.841 135.957 88.0033 87.7943C136.166 39.632 214.252 39.632 262.415 87.7943Z"/>
</mask>
<g mask="url(#mask0_197_8087)">
<path stroke-miterlimit="10" stroke-width="0.832506" stroke="#E7FE55" d="M47.853 71.8495C73.9105 69.7266 97.9616 60.2527 124.21 58.0216C142.775 56.4482 160.799 52.1441 179.489 51.5697C229.681 50.0212 280.197 51.5364 330.414 51.5697"/>
<path stroke-miterlimit="10" stroke-width="0.832506" stroke="#E7FE55" d="M47.8198 75.8623C73.6192 73.3814 97.9117 65.3477 123.828 62.9834C142.767 61.2518 160.849 56.1735 179.947 55.5741C229.831 54.0006 280.489 55.7239 330.422 56.0986"/>
<path stroke-miterlimit="10" stroke-width="0.832506" stroke="#E7FE55" d="M47.72 79.0756C73.0531 76.678 97.9034 70.9254 123.22 68.1864C142.884 66.0552 161.199 59.3869 181.121 58.7625C202.716 58.0798 223.895 61.926 245.432 62.1508C273.779 62.4505 302.084 60.4275 330.431 60.6273"/>
<path stroke-miterlimit="10" stroke-width="0.832506" stroke="#E7FE55" d="M47.5701 81.6315C72.3288 79.6584 97.8368 76.8279 122.421 73.5895C143.1 70.8672 161.773 61.9094 182.861 61.2767C204.514 60.6274 225.094 67.0543 246.581 67.9284C274.553 69.069 302.45 65.1479 330.414 65.1479"/>
<path stroke-miterlimit="10" stroke-width="0.832506" stroke="#E7FE55" d="M47.3872 83.6627C71.7713 82.3556 97.3126 82.4222 121.497 79.1338C143.467 76.1451 162.506 63.824 185.084 63.2496C206.895 62.7002 226.626 72.1408 248.071 73.939C275.494 76.2367 303.017 69.9929 330.423 69.6682"/>
<path stroke-miterlimit="10" stroke-width="0.832506" stroke="#E7FE55" d="M47.1702 85.3194C71.0797 84.8698 96.8042 88.8825 120.456 84.8032C143.716 80.7989 163.496 65.2477 187.622 64.8481C209.709 64.4818 228.373 77.2274 249.777 80.1412C276.451 83.7793 303.757 74.938 330.414 74.1971"/>
<path stroke-miterlimit="10" stroke-width="0.832506" stroke="#E7FE55" d="M46.9377 86.7348C70.5809 87.2426 95.8808 95.4594 119.357 90.5393C143.833 85.4194 164.746 66.2884 190.387 66.1969C212.84 66.1136 230.297 82.2892 251.643 86.4517C277.4 91.4717 304.657 79.9249 330.414 78.7177"/>
<path stroke-miterlimit="10" stroke-width="0.832506" stroke="#E7FE55" d="M46.7043 88.0584C70.3642 89.5902 94.4819 102.128 118.233 96.3169C143.924 90.0315 166.086 67.5705 193.242 67.4622C216.003 67.3707 232.461 87.4007 253.582 92.8204C278.357 99.189 305.63 84.9199 330.422 83.2549"/>
<path stroke-miterlimit="10" stroke-width="0.832506" stroke="#E7FE55" d="M46.4629 89.4155C70.3725 92.0046 92.667 108.821 117.109 102.07C143.858 94.677 167.543 68.7111 196.048 68.7527C219.158 68.786 234.609 92.5125 255.472 99.1559C279.323 106.748 306.546 89.8651 330.414 87.7755"/>
<path stroke-miterlimit="10" stroke-width="0.832506" stroke="#E7FE55" d="M46.2463 90.9638C70.5389 94.5686 90.6356 115.489 116.052 107.772C143.716 99.3722 169.008 70.0097 198.703 70.2344C222.171 70.4093 236.665 97.6738 257.262 105.408C280.355 114.083 307.337 94.7684 330.422 92.3042"/>
<path stroke-miterlimit="10" stroke-width="0.832506" stroke="#E7FE55" d="M46.0466 92.8287C70.7887 97.3243 88.5544 121.991 115.078 113.375C143.55 104.126 170.331 71.6331 201.068 72.0494C224.927 72.3741 238.455 102.844 258.852 111.51C281.404 121.092 307.945 99.5887 330.422 96.8331"/>
<path stroke-miterlimit="10" stroke-width="0.832506" stroke="#E7FE55" d="M45.8801 95.1597C71.0718 100.305 86.6063 128.219 114.221 118.836C128.248 114.074 141.801 104.509 154.322 96.908C167.667 88.7994 186.349 74.0224 203.016 74.3304C227.35 74.78 239.812 107.989 260.151 117.388C282.403 127.669 308.344 104.309 330.422 101.354"/>
<path stroke-miterlimit="10" stroke-width="0.832506" stroke="#E7FE55" d="M45.7634 98.0901C71.4296 103.551 84.9245 134.038 113.538 124.123C127.948 119.128 141.935 108.938 154.722 100.962C168.192 92.5539 187.414 76.8695 204.431 77.2358C229.339 77.7686 240.586 113.084 261.074 122.99C283.294 133.73 308.511 108.904 330.422 105.882"/>
<path stroke-miterlimit="10" stroke-width="0.832506" stroke="#E7FE55" d="M45.697 101.77C71.871 107.098 83.5927 139.341 113.055 129.184C127.707 124.131 142.035 113.416 154.938 105.225C168.558 96.5832 187.856 80.5158 205.172 80.8905C230.813 81.4566 240.62 118.087 261.533 128.227C284.002 139.124 308.411 113.333 330.414 110.403"/>
<path stroke-miterlimit="10" stroke-width="0.832506" stroke="#E7FE55" d="M45.614 106.24C71.6881 111.577 83.5763 143.753 112.872 133.522C127.583 128.385 141.968 117.837 155.022 109.687C168.683 101.162 188.114 85.1531 205.364 85.3778C231.088 85.7192 240.595 122.782 261.499 132.881C284.219 143.861 308.236 117.746 330.431 114.923"/>
<path stroke-miterlimit="10" stroke-width="0.832506" stroke="#E7FE55" d="M45.0808 111.036C70.7386 116.497 84.2835 146.767 112.772 136.76C127.541 131.574 141.893 121.808 155.271 113.966C169.033 105.899 188.988 90.2396 205.954 90.3645C231.096 90.556 240.903 127.386 261.208 137.418C283.918 148.64 308.178 122.274 330.422 119.461"/>
<path stroke-miterlimit="10" stroke-width="0.832506" stroke="#E7FE55" d="M44.115 116.056C69.6146 121.234 84.8162 148.69 112.639 139.291C127.507 134.263 141.959 125.388 155.696 118.02C169.699 110.511 190.22 95.5344 206.995 95.7509C231.554 96.0589 241.036 132.123 260.758 142.096C283.369 153.527 308.178 126.82 330.414 123.989"/>
<path stroke-miterlimit="10" stroke-width="0.832506" stroke="#E7FE55" d="M42.7996 121.251C68.2659 125.821 85.2657 149.739 112.489 141.256C127.499 136.577 142.143 128.66 156.262 121.925C170.639 115.073 191.702 101.087 208.377 101.512C232.378 102.136 241.019 136.968 260.2 146.883C282.653 158.489 308.252 131.357 330.414 128.51"/>
<path stroke-miterlimit="10" stroke-width="0.832506" stroke="#E7FE55" d="M41.21 126.587C66.6763 130.3 85.6491 150.163 112.298 142.804C127.483 138.617 142.368 131.732 156.895 125.754C171.73 119.652 193.3 106.89 209.959 107.647C233.469 108.713 240.787 142.021 259.535 151.787C281.904 163.442 308.253 135.928 330.423 133.03"/>
<path stroke-miterlimit="10" stroke-width="0.832506" stroke="#E7FE55" d="M39.4451 132.015C64.8864 134.695 85.9738 150.188 112.09 144.078C127.474 140.481 142.634 134.687 157.544 129.584C172.904 124.331 194.899 112.967 211.607 114.124C235.234 115.756 239.638 147.916 258.794 156.79C282.287 167.679 307.279 140.656 330.431 137.568"/>
<path stroke-miterlimit="10" stroke-width="0.832506" stroke="#E7FE55" d="M37.572 137.501C61.5732 138.95 84.2257 149.747 108.435 145.868C128.565 142.646 148.304 136.061 167.959 130.791C181.179 127.253 198.72 119.952 212.673 121.567C236.857 124.364 239.13 154.734 259.968 162.859C282.637 171.709 308.12 145.027 330.423 142.096"/>
<path stroke-miterlimit="10" stroke-width="0.832506" stroke="#E7FE55" d="M35.6736 142.987C59.9328 143.428 83.8341 149.797 108.102 146.85C128.44 144.377 148.553 139.449 168.625 135.453C182.278 132.739 199.91 126.67 213.988 128.543C237.282 131.64 238.988 159.987 259.043 167.904C281.629 176.82 308.136 149.606 330.414 146.617"/>
<path stroke-miterlimit="10" stroke-width="0.832506" stroke="#E7FE55" d="M33.8501 148.449C58.4756 147.941 83.1761 150.022 107.76 147.982C128.29 146.284 148.711 143.021 169.124 140.332C183.218 138.475 200.768 133.688 215.028 135.786C237.414 139.075 238.83 165.357 258.144 172.974C280.721 181.882 308.119 154.193 330.422 151.146"/>
<path stroke-miterlimit="10" stroke-width="0.832506" stroke="#E7FE55" d="M32.1687 153.835C57.2604 152.486 82.3022 150.546 107.402 149.406C128.082 148.465 148.728 146.85 169.382 145.468C183.876 144.494 201.176 140.989 215.653 143.253C237.157 146.608 238.639 170.826 257.262 178.036C279.981 186.843 307.995 158.78 330.431 155.674"/>
<path stroke-miterlimit="10" stroke-width="0.832506" stroke="#E7FE55" d="M30.7119 159.096C56.2865 157.098 81.32 151.529 107.028 151.262C127.79 151.054 148.553 151.029 169.316 150.913C184.151 150.829 201.034 148.582 215.745 150.921C236.424 154.218 238.406 176.371 256.429 183.064C279.506 191.631 307.687 163.384 330.422 160.195"/>
<path stroke-miterlimit="10" stroke-width="0.832506" stroke="#E7FE55" d="M29.5713 164.208C55.5788 161.827 80.3708 153.152 106.645 153.718C141.835 154.484 180.421 153.402 215.179 158.796C235.092 161.893 238.106 182.023 255.68 188.051C279.398 196.193 307.162 167.996 330.414 164.716"/>
<path stroke-miterlimit="10" stroke-width="0.832506" stroke="#E7FE55" d="M28.8306 169.111C54.0472 166.847 77.6903 155.958 103.207 156.74C139.679 157.856 178.224 161.86 214.371 166.73C233.819 169.353 238.913 189.233 256.946 193.42C281.504 199.131 306.455 172.533 330.431 169.244"/>
<path stroke-miterlimit="10" stroke-width="0.832506" stroke="#E7FE55" d="M28.564 173.773C53.9887 171.917 77.1657 159.446 102.915 160.761C139.237 162.609 175.826 170.901 211.973 174.997C231.113 177.17 238.53 194.827 256.537 198.174C282.137 202.928 305.555 177.162 330.414 173.773"/>
<path stroke-miterlimit="10" stroke-width="0.832506" stroke="#E7FE55" d="M28.855 178.31C54.0966 176.063 78.0145 164.699 103.556 165.998C138.921 167.787 175.06 174.531 210.191 179.001C229.306 181.432 238.705 198.79 256.92 202.037C282.187 206.541 305.905 181.948 330.422 178.31"/>
<path stroke-miterlimit="10" stroke-width="0.832506" stroke="#E7FE55" d="M29.6875 182.848C55.9531 180.458 81.4527 170.793 107.985 172.416C140.902 174.431 174.818 178.169 207.486 182.648C226.509 185.254 237.697 200.622 255.755 204.551C281.312 210.104 305.68 186.594 330.422 182.831"/>
<path stroke-miterlimit="10" stroke-width="0.832506" stroke="#E7FE55" d="M30.9453 187.401C57.3274 185.345 83.5264 178.377 110.058 179.384C141.294 180.567 173.803 182.082 204.814 185.936C224.453 188.375 238.014 203.077 256.912 206.74C282.295 211.652 305.756 190.865 330.414 187.36"/>
<path stroke-miterlimit="10" stroke-width="0.832506" stroke="#E7FE55" d="M32.5601 191.955C88.7542 188.858 145.623 183.339 201.917 189.05C222.446 191.131 238.414 204.976 258.377 208.347C283.411 212.576 305.98 194.919 330.422 191.88"/>
<path stroke-miterlimit="10" stroke-width="0.832506" stroke="#E7FE55" d="M34.4248 196.517C61.4979 195.826 88.5876 196.076 115.652 195.027C142.95 193.97 171.597 190.199 198.845 192.122C220.415 193.645 238.972 205.816 260.042 209.554C284.11 213.817 306.746 198.782 330.422 196.409"/>
<path stroke-miterlimit="10" stroke-width="0.832506" stroke="#E7FE55" d="M36.4475 201.079C63.8536 201.304 91.5261 205.841 118.882 203.402C144.132 201.146 170.356 194.428 195.714 195.285C218.408 196.051 239.571 206.973 261.857 210.503C285.2 214.2 307.312 202.57 330.422 200.929"/>
<path stroke-miterlimit="10" stroke-width="0.832506" stroke="#E7FE55" d="M38.5457 205.65C66.0433 206.824 94.8147 215.923 122.229 211.935C145.531 208.547 168.991 198.832 192.609 198.665C216.436 198.499 240.195 208.222 263.73 211.369C286.274 214.391 307.97 206.341 330.422 205.458"/>
<path stroke-miterlimit="10" stroke-width="0.832506" stroke="#E7FE55" d="M40.627 210.212C68.6491 212.377 100.11 226.554 127.932 219.902C148.029 215.099 168.583 202.378 189.354 201.812C213.305 201.154 239.021 209.113 262.839 211.985C285.559 214.724 307.703 210.162 330.422 209.996"/>
<path stroke-miterlimit="10" stroke-width="0.832506" stroke="#E7FE55" d="M42.5913 214.774C70.7217 217.788 102.981 235.628 130.954 228.153C149.893 223.091 166.535 207.273 186.482 205.983C211.465 204.36 239.479 211.02 264.512 213.226C286.466 215.157 308.419 213.983 330.422 214.508"/>
<path stroke-miterlimit="10" stroke-width="0.832506" stroke="#E7FE55" d="M44.3484 219.336C71.7878 222.933 106.512 245.102 133.71 236.136C151.434 230.292 164.729 212.71 183.96 210.803C209.901 208.239 239.871 213.425 266.053 214.882C287.523 216.081 308.944 217.954 330.414 219.037"/>
<path stroke-miterlimit="10" stroke-width="0.832506" stroke="#E7FE55" d="M45.8052 223.89C72.5619 227.828 109.583 253.735 136.074 243.695C152.94 237.302 163.014 218.762 181.903 216.414C208.81 213.067 240.112 216.472 267.393 217.113C288.739 217.613 309.202 222.108 330.414 223.574"/>
<path stroke-miterlimit="10" stroke-width="0.832506" stroke="#E7FE55" d="M46.8792 228.435C64.7114 231.174 79.9047 237.71 96.6047 244.245C109.292 249.215 124.344 256.166 137.93 250.68C154.314 244.062 161.59 225.488 180.421 222.933C208.377 219.128 240.112 220.335 268.484 220.06C290.021 219.852 309.235 226.471 330.422 228.094"/>
<path stroke-miterlimit="10" stroke-width="0.832506" stroke="#E7FE55" d="M47.4702 232.973C65.6355 235.67 80.6872 242.663 97.5205 249.656C109.817 254.759 125.643 262.244 139.146 256.949C155.413 250.572 160.674 232.964 179.614 230.5C208.685 226.729 239.846 225.189 269.225 223.882C291.103 222.916 309.102 231.108 330.422 232.607"/>
<path stroke-miterlimit="10" stroke-width="0.832506" stroke="#E7FE55" d="M47.4873 237.493C65.7109 240.132 80.7209 247.209 97.5792 254.26C109.8 259.372 125.826 266.847 139.354 261.902C155.622 255.958 160.633 239.458 179.456 237.135C208.96 233.497 239.496 230.342 269.209 228.369C291.328 226.895 308.927 235.728 330.423 237.135"/>
<path stroke-miterlimit="10" stroke-width="0.832506" stroke="#E7FE55" d="M46.9377 242.014C64.9532 244.703 80.0965 251.471 96.8715 258.231C109.234 263.209 124.985 270.402 138.547 265.599C154.697 259.888 160.733 244.137 179.131 241.664C208.178 237.751 238.114 234.421 267.369 232.024C290.096 230.159 308.311 239.733 330.414 241.664"/>
<path stroke-miterlimit="10" stroke-width="0.832506" stroke="#E7FE55" d="M45.897 246.518C73.1699 250.48 109.659 277.795 137.131 268.721C153.224 263.409 160.6 248.824 178.54 246.193C206.862 242.047 235.633 238.059 264.105 234.963C287.798 232.39 307.362 243.462 330.414 246.193"/>
<path stroke-miterlimit="10" stroke-width="0.832506" stroke="#E7FE55" d="M44.4565 251.022C72.1124 254.751 107.344 279.676 135.2 271.368C151.267 266.581 160.266 253.511 177.716 250.722C205.055 246.36 232.386 241.414 259.793 237.452C284.451 233.88 306.405 247.067 330.422 250.722"/>
<path stroke-miterlimit="10" stroke-width="0.832506" stroke="#E7FE55" d="M42.7166 255.509C70.8386 258.864 104.555 281 132.894 273.649C148.828 269.511 160.058 258.581 176.725 255.251C202.733 250.047 228.74 244.645 254.814 239.749C280.181 234.987 305.647 250.697 330.422 255.251"/>
<path stroke-miterlimit="10" stroke-width="0.832506" stroke="#E7FE55" d="M40.7686 260.004C69.3568 262.851 101.533 281.957 130.313 275.68C146.239 272.209 159.351 263.076 175.618 259.771C200.418 254.734 224.919 247.9 249.553 242.114C275.252 236.07 305.181 254.468 330.422 259.771"/>
<path stroke-miterlimit="10" stroke-width="0.832506" stroke="#E7FE55" d="M38.6956 264.491C67.2089 266.656 96.7795 281.791 125.476 277.878C142.134 275.605 157.469 266.989 174.178 263.85C198.786 259.23 222.263 249.015 246.805 244.137C272.53 239.025 305.189 258.539 330.422 264.3"/>
<path stroke-miterlimit="10" stroke-width="0.832506" stroke="#E7FE55" d="M36.5979 268.979C65.1695 270.51 93.9576 282.665 122.671 279.66C139.404 277.903 156.287 271.451 172.879 268.279C196.431 263.775 218.65 252.753 242.019 247.392C256.146 244.145 269.816 250.43 283.278 254.884C298.937 260.062 314.372 264.991 330.431 268.837"/>
<path stroke-miterlimit="10" stroke-width="0.832506" stroke="#E7FE55" d="M34.5581 273.466C63.0548 274.39 91.3517 283.689 119.932 281.516C136.865 280.234 154.947 275.872 171.622 272.742C194.191 268.504 215.47 254.901 238.106 251.538C266.736 247.284 302.242 266.564 330.414 273.358"/>
<path stroke-miterlimit="10" stroke-width="0.832506" stroke="#E7FE55" d="M32.677 277.953C60.9989 278.336 89.0293 285.004 117.401 283.564C134.659 282.69 153.524 280.209 170.515 277.237C192.635 273.374 213.372 260.179 235.509 256.849C264.68 252.462 301.626 271.185 330.414 277.878"/>
<path stroke-miterlimit="10" stroke-width="0.832506" stroke="#E7FE55" d="M31.0452 282.449C77.4823 282.407 123.254 288.717 169.599 281.799C191.661 278.503 212.548 266.598 234.601 263.609C264.338 259.588 300.994 276.18 330.414 282.399"/>
<path stroke-miterlimit="10" stroke-width="0.832506" stroke="#E7FE55" d="M29.7542 286.952C75.9166 286.494 123.261 292.239 169.315 286.927C192.334 284.272 214.779 273.541 237.881 271.601C267.351 269.128 301.376 281.891 330.414 286.927"/>
<path stroke-miterlimit="10" stroke-width="0.832506" stroke="#E7FE55" d="M28.8972 291.465C75.3843 290.99 122.388 294.295 168.825 291.465C193.176 289.974 217.343 283.323 241.719 282.29C270.857 281.05 301.46 288.243 330.414 291.465"/>
<path stroke-miterlimit="10" stroke-width="0.832506" stroke="#E7FE55" d="M28.564 295.985C129.181 295.885 229.814 295.053 330.422 295.985"/>
</g>
</svg>