<svg width="24" height="24" viewBox="0 0 24 24" fill="none" xmlns="http://www.w3.org/2000/svg">
<path d="M12 22C10.6167 22 9.31667 21.7373 8.1 21.212C6.88334 20.6867 5.825 19.9743 4.925 19.075C4.025 18.1757 3.31267 17.1173 2.788 15.9C2.26333 14.6827 2.00067 13.3827 2 12C1.99933 10.6173 2.262 9.31733 2.788 8.1C3.314 6.88267 4.02633 5.82433 4.925 4.925C5.82367 4.02567 6.882 3.31333 8.1 2.788C9.318 2.26267 10.618 2 12 2C13.382 2 14.682 2.26267 15.9 2.788C17.118 3.31333 18.1763 4.02567 19.075 4.925C19.9737 5.82433 20.6863 6.88267 21.213 8.1C21.7397 9.31733 22.002 10.6173 22 12C21.998 13.3827 21.7353 14.6827 21.212 15.9C20.6887 17.1173 19.9763 18.1757 19.075 19.075C18.1737 19.9743 17.1153 20.687 15.9 21.213C14.6847 21.739 13.3847 22.0013 12 22ZM12 20C12.9333 20 13.8127 19.8543 14.638 19.563C15.4633 19.2717 16.2173 18.859 16.9 18.325L13.575 15H16.4L18.3 16.9C18.8333 16.2167 19.25 15.4627 19.55 14.638C19.85 13.8133 20 12.934 20 12C20 9.78333 19.221 7.89567 17.663 6.337C16.105 4.77833 14.2173 3.99933 12 4C11.0667 4 10.1877 4.15 9.363 4.45C8.53833 4.75 7.784 5.16667 7.1 5.7L10.425 9H7.6L5.7 7.1C5.16667 7.78333 4.75 8.53767 4.45 9.363C4.15 10.1883 4 11.0673 4 12C4 14.2167 4.77933 16.1043 6.338 17.663C7.89667 19.2217 9.784 20.0007 12 20ZM5 14L6.5 12L5 10H6.5L7.25 11L8 10H9.5L8 12L9.5 14H8L7.25 13L6.5 14H5ZM9.75 14L11.25 12L9.75 10H11.25L12 11L12.75 10H14.25L12.75 12L14.25 14H12.75L12 13L11.25 14H9.75ZM14.5 14L16 12L14.5 10H16L16.75 11L17.5 10H19L17.5 12L19 14H17.5L16.75 13L16 14H14.5Z" fill="#566379"/>
</svg>
